<svg width="96" height="44" viewBox="0 0 96 44" fill="none" xmlns="http://www.w3.org/2000/svg">
<path d="M55.979 30.6218C52.125 33.4584 46.5446 34.9728 41.7363 34.9728C35.3128 35.0049 29.1086 32.6379 24.3389 28.3353C23.981 28.0105 24.3058 27.5665 24.7366 27.8183C29.6907 30.7013 35.8146 32.4344 42.1406 32.4344C46.4087 32.4344 51.1011 31.553 55.4189 29.7204C56.0684 29.4421 56.6152 30.1479 55.979 30.6218Z" fill="white"/>
<path d="M57.577 28.7887C58.0741 29.4183 57.0303 32.0196 56.5663 33.1794C56.4272 33.5307 56.7287 33.6732 57.0468 33.4081C59.1146 31.6783 59.6449 28.0596 59.224 27.5361C58.8032 27.0125 55.1911 26.5684 52.9908 28.1193C52.6494 28.3546 52.7058 28.6826 53.0836 28.6396C54.3262 28.4904 57.0866 28.1591 57.577 28.7887ZM53.1697 17.1838V15.676C53.1697 15.4474 53.3453 15.2949 53.5508 15.2949H60.2944C60.5098 15.2949 60.6821 15.4507 60.6821 15.676V16.9684C60.6821 17.1838 60.4998 17.4655 60.1751 17.9128L56.6823 22.9001C57.9813 22.8669 59.3499 23.0625 60.5263 23.7252C60.7914 23.8743 60.8643 24.093 60.8875 24.3117V25.9189C60.8875 26.1376 60.6423 26.3928 60.3905 26.2603C59.2883 25.6928 58.0662 25.3979 56.8265 25.4002C55.5869 25.4025 54.3658 25.702 53.2658 26.2735C53.0338 26.3994 52.7886 26.1443 52.7886 25.9256V24.4012C52.7886 24.156 52.7886 23.7385 53.0372 23.364L57.08 17.5649H53.5574C53.342 17.5649 53.1664 17.4091 53.1664 17.1871M28.5781 26.5784H26.5235C26.4319 26.5714 26.3456 26.5329 26.2791 26.4695C26.2127 26.4061 26.1702 26.3216 26.159 26.2304V15.7025C26.159 15.4904 26.3346 15.3247 26.5567 15.3247H28.4687C28.6676 15.3314 28.8266 15.4871 28.8399 15.676V17.0512H28.8763C29.3734 15.7224 30.3145 15.1027 31.5771 15.1027C32.8628 15.1027 33.6647 15.7224 34.2413 17.0512C34.4462 16.4681 34.831 15.9652 35.3402 15.6149C35.8495 15.2647 36.4568 15.0854 37.0746 15.1027C37.5326 15.0946 37.9861 15.1944 38.3984 15.3942C38.8106 15.594 39.1699 15.8881 39.4473 16.2526C40.0968 17.1374 39.9643 18.4265 39.9643 19.5531V26.1973C39.9634 26.2485 39.9524 26.299 39.9319 26.346C39.9114 26.3929 39.8818 26.4353 39.8449 26.4707C39.8079 26.5062 39.7643 26.5339 39.7165 26.5524C39.6687 26.5709 39.6178 26.5797 39.5666 26.5784H37.5187C37.4207 26.5719 37.3285 26.5294 37.26 26.459C37.1915 26.3887 37.1514 26.2954 37.1475 26.1973V20.6169C37.1475 20.1728 37.1873 19.066 37.0912 18.6452C36.9388 17.9393 36.4782 17.7405 35.885 17.7405C35.3879 17.7405 34.871 18.0719 34.6589 18.6021C34.4468 19.1323 34.47 20.0204 34.47 20.6169V26.1973C34.4691 26.2485 34.4581 26.299 34.4377 26.346C34.4172 26.3929 34.3876 26.4353 34.3506 26.4707C34.3136 26.5062 34.27 26.5339 34.2222 26.5524C34.1745 26.5709 34.1235 26.5797 34.0723 26.5784H32.0277C31.9295 26.5733 31.8369 26.5312 31.7686 26.4604C31.7003 26.3897 31.6615 26.2956 31.6599 26.1973L31.6566 20.6169C31.6566 19.4438 31.8488 17.7173 30.394 17.7173C28.9194 17.7173 28.9757 19.4007 28.9757 20.6169V26.1973C28.9749 26.2485 28.9639 26.299 28.9434 26.346C28.9229 26.3929 28.8933 26.4353 28.8563 26.4707C28.8194 26.5062 28.7757 26.5339 28.728 26.5524C28.6802 26.5709 28.6293 26.5797 28.5781 26.5784ZM66.4911 15.1027C69.5332 15.1027 71.1802 17.7173 71.1802 21.041C71.1802 24.2488 69.3576 26.7971 66.4878 26.7971C63.4988 26.7971 61.8717 24.1825 61.8717 20.9284C61.8717 17.6477 63.522 15.1027 66.4911 15.1027ZM66.5011 17.2501C64.99 17.2501 64.8939 19.3112 64.8939 20.597C64.8939 21.8827 64.874 24.6299 66.4845 24.6299C68.0751 24.6299 68.148 22.4096 68.148 21.0609C68.148 20.1728 68.1149 19.1124 67.8432 18.2707C67.6112 17.5384 67.1539 17.2501 66.5011 17.2501ZM75.1269 26.5784H73.0823C72.9849 26.5711 72.8935 26.5283 72.8257 26.458C72.7578 26.3877 72.7182 26.2949 72.7144 26.1973L72.7111 15.6661C72.7227 15.5697 72.7699 15.4812 72.8436 15.4181C72.9172 15.3549 73.0118 15.3216 73.1088 15.3247H75.0076C75.0918 15.3289 75.1724 15.3598 75.2379 15.4128C75.3034 15.4658 75.3504 15.5382 75.3721 15.6197V17.2269H75.4119C75.9851 15.7887 76.7904 15.1027 78.2087 15.1027C79.1266 15.1027 80.0247 15.4341 80.6013 16.3421C81.1381 17.1838 81.1381 18.6021 81.1381 19.6227V26.247C81.1223 26.3406 81.0735 26.4255 81.0006 26.4862C80.9276 26.547 80.8354 26.5797 80.7404 26.5784H78.6859C78.5967 26.5721 78.5123 26.5361 78.4461 26.4759C78.38 26.4158 78.336 26.3352 78.3214 26.247V20.5274C78.3214 19.3775 78.4539 17.6941 77.0389 17.6941C76.5419 17.6941 76.0779 18.0255 75.8526 18.5358C75.5643 19.1787 75.5278 19.8183 75.5278 20.5274V26.1973C75.5235 26.3004 75.4793 26.3979 75.4045 26.469C75.3297 26.5401 75.2301 26.5793 75.1269 26.5784ZM47.7981 21.5514V21.1073C46.3102 21.1073 44.7461 21.4221 44.7461 23.1718C44.7461 24.0566 45.2067 24.6564 45.9954 24.6564C46.5686 24.6564 47.0889 24.3018 47.4137 23.7252C47.8179 23.0161 47.7981 22.35 47.7981 21.5514ZM49.8659 26.5486C49.7996 26.6046 49.718 26.6393 49.6316 26.6482C49.5453 26.6571 49.4583 26.6397 49.382 26.5983C48.6994 26.0349 48.5768 25.7698 48.2023 25.2297C47.0756 26.3796 46.2803 26.7209 44.8223 26.7209C43.0958 26.7209 41.7537 25.6605 41.7537 23.5264C41.7537 21.8629 42.6517 20.7262 43.9408 20.1728C45.0542 19.6824 46.6084 19.5962 47.7981 19.4604V19.1953C47.7981 18.7081 47.8312 18.1315 47.5462 17.7107C47.2977 17.3329 46.8172 17.1772 46.393 17.1772C45.6143 17.1772 44.9184 17.5748 44.7461 18.4066C44.7129 18.5921 44.5771 18.7744 44.3882 18.7843L42.3999 18.5689C42.2342 18.5325 42.0453 18.3966 42.095 18.1382C42.5523 15.729 44.7328 15 46.6846 15C47.6788 15 48.9844 15.2651 49.7731 16.024C50.7705 16.9518 50.6744 18.1978 50.6744 19.5498V22.7476C50.6744 23.7086 51.0721 24.1295 51.4499 24.6498C51.5791 24.832 51.6089 25.054 51.4399 25.1932C51.0224 25.5445 50.2801 26.1907 49.8692 26.5552L49.8659 26.5486ZM20.9067 21.5514V21.1073C19.4221 21.1073 17.858 21.4221 17.858 23.1718C17.858 24.0566 18.3153 24.6564 19.104 24.6564C19.6806 24.6564 20.1975 24.3018 20.5223 23.7252C20.9265 23.0161 20.9067 22.35 20.9067 21.5514ZM22.9745 26.5486C22.9082 26.6046 22.8266 26.6393 22.7402 26.6482C22.6539 26.6571 22.5669 26.6397 22.4906 26.5983C21.808 26.0349 21.6887 25.7698 21.3143 25.2297C20.1876 26.3796 19.3923 26.7209 17.9342 26.7209C16.2077 26.7209 14.8623 25.6605 14.8623 23.5264C14.8623 21.8629 15.7637 20.7262 17.0494 20.1728C18.1628 19.6824 19.717 19.5962 20.9067 19.4604V19.1953C20.9067 18.7081 20.9431 18.1315 20.6581 17.7107C20.4063 17.3329 19.9291 17.1772 19.5082 17.1772C18.7262 17.1772 18.027 17.5748 17.858 18.4066C17.8248 18.5921 17.6857 18.7744 17.5034 18.7843L15.5118 18.5689C15.3461 18.5325 15.1605 18.3966 15.2069 18.1382C15.6642 15.729 17.8414 15 19.7932 15C20.7907 15 22.0963 15.2651 22.8817 16.024C23.8791 16.9518 23.7863 18.1978 23.7863 19.5498V22.7476C23.7863 23.7086 24.184 24.1295 24.5585 24.6498C24.691 24.832 24.7208 25.054 24.5518 25.1932C24.1343 25.5445 23.392 26.1907 22.9811 26.5552L22.9745 26.5486Z" fill="white"/>
</svg>
